<svg width="453" height="93" viewBox="0 0 453 93" fill="none" xmlns="http://www.w3.org/2000/svg">
<g clip-path="url(#clip0_3364_3243)">
<path fill-rule="evenodd" clip-rule="evenodd" d="M52.8887 41.262V40.7708C61.9224 39.625 80.4827 36.2698 80.4827 20.514C80.4827 3.85885 62.8257 0.175873 50.0964 0.175873H0V0.830484L8.76374 10.3454V81.2637L0 90.7777V91.4324H49.7675C65.0426 91.4324 86.6 85.335 85.7384 63.4412C84.8505 40.9108 52.8887 41.262 52.8887 41.262ZM34.4923 10.3445C34.4923 5.76129 36.3043 3.44893 41.2266 3.44893C47.4273 3.44893 55.1881 9.09665 55.1881 22.0282C55.1881 34.9597 48.8234 39.0517 44.5942 40.1975C42.1834 40.8503 37.3073 41.0697 34.4932 41.1428V10.3445H34.4923ZM42.7052 88.404C37.6343 87.9417 34.4923 84.8438 34.4923 78.8575V43.308H41.3906C50.7532 43.308 58.8012 46.6632 58.8012 66.716C58.8012 86.0645 48.5353 88.9367 42.7052 88.404ZM387.666 11.3855C387.666 18.1023 381.898 22.5952 374.784 22.5952C367.67 22.5952 361.903 18.1023 361.903 11.3855C361.903 4.66877 367.67 0.175873 374.784 0.175873C381.898 0.175873 387.666 4.66877 387.666 11.3855ZM357.489 31.286L388.532 26.1619V83.6576L395.102 90.778V91.4326H357.489V90.778L364.059 83.6576V39.061L357.489 31.9406V31.286ZM347.716 81.2837C342.296 81.2837 340.736 76.9461 340.736 71.4627V31.9404H353.178L354.04 27.88H340.736V5.29091H339.504C326.938 23.0918 309.446 30.5806 309.446 30.5806V31.9395H316.263V71.4618C316.263 71.6541 316.262 71.852 316.262 72.0552C316.255 75.0297 316.245 79.1191 317.659 82.8556C319.602 87.9878 324.098 92.4554 333.591 92.4554C350.468 92.4554 355.764 76.4955 355.764 76.4955L354.795 76.0892C354.795 76.0892 352.643 81.2837 347.716 81.2837ZM113.014 52.9242C112.89 66.9203 120.774 76.8641 133.093 76.8641C145.412 76.8641 151.756 66.6133 151.756 66.6133L152.598 66.8797C149.436 80.9163 140.115 92.4763 123.526 92.4763C105.047 92.4763 90.9208 79.4428 90.9208 59.3304C90.9208 38.0695 105.299 26.1845 123.035 26.1845C140.772 26.1845 152.27 35.7779 152.269 52.3103H113.021L113.018 52.5344L113.015 52.7796L113.014 52.9242ZM130.999 44.0062C132.129 36.0587 127.549 28.4941 121.759 28.4941C116.407 28.4941 113.582 37.4131 113.088 49.8173H119.748C124.84 49.8173 130.257 49.2223 130.999 44.0062ZM219.93 70.8486V70.8488C219.684 77.4604 219.514 82.0031 222.722 82.389C226.147 82.8008 227.969 75.6416 227.969 75.6416L229.128 76.1282C226.418 86.3176 220.012 92.4764 210.281 92.4764C199.022 92.4764 196.133 85.2684 195.762 78.9742C193.263 84.0161 187.427 92.1324 175.665 92.4764C158.057 92.9928 154.115 78.7963 159.199 69.1505C164.313 59.4451 181.909 51.6629 196.763 49.5402C196.867 46.528 196.945 44.0378 196.976 42.6121C196.99 41.967 197.016 41.2972 197.043 40.6165V40.6162V40.6159C197.253 35.2091 197.491 29.1081 191.802 29.1081C182.686 29.1081 178.129 41.6306 176.775 52.3112H158.79C162.73 34.7586 177.759 26.1619 196.36 26.1619C211.142 26.1619 220.751 32.6692 220.628 42.7358C220.53 50.7158 220.259 60.6595 220.012 68.5167C219.987 69.3187 219.958 70.097 219.93 70.8486ZM195.786 72.1247C195.834 71.2778 195.901 70.7406 195.98 70.4372C196.19 65.1271 196.48 57.5905 196.695 51.5139C183.634 55.0651 180.223 65.8576 180.223 72.9364C180.223 80.548 184.125 82.1028 187.204 82.1028C190.284 82.1028 195.369 79.4365 195.786 72.1247ZM300.951 26.1619L269.907 31.286V31.9406L276.478 39.061V76.409C274.956 78.0948 271.595 81.2848 267.969 81.2848C262.549 81.2848 259.809 76.9472 259.809 71.4638L259.807 71.4629V26.1619L228.764 31.286V31.9406L235.334 39.061V71.4629H235.336V71.594C235.336 74.5917 235.335 78.7238 237.005 82.585C239.434 88.202 245.266 92.8213 254.753 92.4556C267.622 91.9608 274.553 83.1096 277.338 78.4189C277.338 78.4189 277.087 85.9483 275.202 91.4326H307.523V90.778L300.952 83.6576V26.1619H300.951ZM417.358 35.7786C417.358 39.0525 419.74 42.5495 426.242 45.0731C427 45.3673 427.837 45.6747 428.732 46.0035C437.841 49.3499 453 54.9188 453.001 71.4626C453.001 86.2758 439.039 92.8237 427.706 92.8237C425.197 92.8237 422.262 92.2172 419.24 91.5926C416.031 90.9295 412.724 90.2459 409.721 90.2459C404.753 90.2459 401.591 91.5966 401.591 91.5966V64.67H402.33C402.33 64.67 407.422 75.1456 412.76 81.4479C418.097 87.7493 423.025 90.3687 427.706 90.3687C432.387 90.3687 435.508 87.4225 435.508 83.1255C435.508 78.8285 431.976 73.9176 421.3 69.7434C410.624 65.5693 400.618 60.113 400.933 46.9909C401.261 33.3226 411.444 26.3251 424.583 26.3251C426.966 26.3251 429.367 26.712 431.794 27.1031C436.73 27.8985 441.775 28.7116 447.005 26.3251L448.237 50.4283H447.498C447.498 50.4283 443.885 42.6118 439.614 37.3578C435.343 32.1037 430.662 28.4939 424.995 28.4939C419.328 28.4939 417.358 32.5046 417.358 35.7786Z" fill="white"/>
</g>
<defs>
<clipPath id="clip0_3364_3243">
<rect width="453" height="93" fill="white"/>
</clipPath>
</defs>
</svg>
