<svg width="82" height="40" viewBox="0 0 82 40" fill="none" xmlns="http://www.w3.org/2000/svg">
<path d="M20 0.5H8.2C8.2 8.65827 0.5 12.2397 0.5 20C0.5 27.7603 8.2 31.3417 8.2 39.5H20" fill="white"/>
<path d="M20 0.5H8.2C8.2 8.65827 0.5 12.2397 0.5 20C0.5 27.7603 8.2 31.3417 8.2 39.5H20" stroke="black" stroke-miterlimit="10"/>
<path d="M62 39.5L73.8 39.5C73.8 31.3417 81.5 27.7603 81.5 20C81.5 12.2397 73.8 8.65827 73.8 0.5L62 0.500001" fill="white"/>
<path d="M62 39.5L73.8 39.5C73.8 31.3417 81.5 27.7603 81.5 20C81.5 12.2397 73.8 8.65827 73.8 0.500001L62 0.500002" stroke="black" stroke-miterlimit="10"/>
<rect width="42" height="40" transform="translate(20)" fill="white"/>
<line x1="20" y1="0.5" x2="62" y2="0.5" stroke="black"/>
<line x1="20" y1="39.5" x2="62" y2="39.5" stroke="black"/>
<path d="M14.165 18V16.788C14.357 16.8 14.519 16.786 14.651 16.746C14.783 16.702 14.893 16.62 14.981 16.5C15.073 16.376 15.153 16.202 15.221 15.978C15.289 15.75 15.355 15.464 15.419 15.12C15.511 14.628 15.587 14.116 15.647 13.584C15.711 13.048 15.765 12.522 15.809 12.006C15.853 11.486 15.887 10.998 15.911 10.542C15.935 10.086 15.955 9.692 15.971 9.36H21.755V18H20.309V10.716H17.309C17.289 10.984 17.265 11.308 17.237 11.688C17.213 12.064 17.179 12.472 17.135 12.912C17.095 13.352 17.043 13.808 16.979 14.28C16.919 14.752 16.845 15.216 16.757 15.672C16.677 16.088 16.581 16.462 16.469 16.794C16.357 17.122 16.207 17.394 16.019 17.61C15.835 17.822 15.593 17.964 15.293 18.036C14.997 18.108 14.621 18.096 14.165 18ZM25.0569 18L26.1969 15.672L23.2149 9.36H24.8469L26.9529 14.148L29.1249 9.36H30.6669L26.5989 18H25.0569ZM37.0175 18V14.16L37.2515 14.532C37.0155 14.728 36.6955 14.882 36.2915 14.994C35.8875 15.102 35.4575 15.156 35.0015 15.156C34.2735 15.156 33.6935 15.014 33.2615 14.73C32.8295 14.446 32.5175 14.054 32.3255 13.554C32.1335 13.054 32.0375 12.476 32.0375 11.82V9.36H33.5015V11.376C33.5015 11.672 33.5175 11.964 33.5495 12.252C33.5855 12.536 33.6615 12.794 33.7775 13.026C33.8975 13.258 34.0795 13.444 34.3235 13.584C34.5675 13.72 34.8975 13.788 35.3135 13.788C35.7775 13.788 36.1735 13.71 36.5015 13.554C36.8295 13.398 37.0615 13.232 37.1975 13.056L37.0175 13.782V9.36H38.4695V18H37.0175ZM40.6269 18V9.36H42.0729V16.644H44.7429V9.36H46.1889V16.644H48.8649V9.36H50.3049V18H40.6269ZM51.8623 18L54.5863 9.36H56.7043L59.4283 18H57.9403L55.4683 10.248H55.7923L53.3503 18H51.8623ZM53.3803 16.128V14.778H57.9163V16.128H53.3803ZM67.2331 18V9.36H63.6631C63.5791 9.36 63.4711 9.364 63.3391 9.372C63.2071 9.376 63.0851 9.388 62.9731 9.408C62.4731 9.484 62.0591 9.65 61.7311 9.906C61.4071 10.162 61.1651 10.486 61.0051 10.878C60.8491 11.266 60.7711 11.698 60.7711 12.174C60.7711 12.878 60.9491 13.484 61.3051 13.992C61.6611 14.496 62.2071 14.808 62.9431 14.928L63.5611 14.982L65.7871 14.982V18H67.2331ZM62.2711 18L63.9751 14.484L62.5051 14.16L60.6331 18H62.2711ZM65.7871 13.632H63.7231C63.6431 13.632 63.5531 13.628 63.4531 13.62C63.3531 13.612 63.2611 13.596 63.1771 13.572C62.9371 13.512 62.7471 13.406 62.6071 13.254C62.4711 13.102 62.3731 12.93 62.3131 12.738C62.2571 12.546 62.2291 12.358 62.2291 12.174C62.2291 11.99 62.2571 11.802 62.3131 11.61C62.3731 11.414 62.4711 11.24 62.6071 11.088C62.7471 10.936 62.9371 10.83 63.1771 10.77C63.2611 10.746 63.3531 10.732 63.4531 10.728C63.5531 10.72 63.6431 10.716 63.7231 10.716H65.7871V13.632ZM31.3488 33.362V32H24.7548V23.36H26.2008V30.716H30.3888V23.558H31.8348V30.716H32.7948V33.362H31.3488ZM34.2348 32V23.36H39.8148V24.716H35.6808V26.846H39.0948V28.202H35.6808V30.644H39.8148V32H34.2348ZM41.7343 32V23.36H43.1803V26.996L47.2723 26.996V23.36H48.7123V32H47.2723V28.352L43.1803 28.352V32H41.7343ZM50.2745 32L52.9985 23.36H55.1165L57.8405 32H56.3525L53.8805 24.248H54.2045L51.7625 32H50.2745ZM51.7925 30.128V28.778H56.3285V30.128H51.7925Z" fill="black"/>
</svg>
