<svg width="32" height="32" viewBox="0 0 32 32" fill="none" xmlns="http://www.w3.org/2000/svg">
<path d="M20.8057 18.9543L26.8567 20.4363C27.0467 21.5243 27.0517 22.5353 26.8477 23.4273C26.6527 24.3023 26.2587 25.0593 25.6597 25.6573C23.5067 27.8103 19.2777 27.2893 15.0587 24.7013C13.5897 23.7953 12.1217 22.6433 10.7397 21.2613C9.35766 19.8793 8.20166 18.4063 7.29966 16.9323C4.71066 12.7223 4.18965 8.49325 6.34265 6.34025C6.94065 5.74225 7.69765 5.34725 8.57265 5.15225C9.46565 4.94825 10.4767 4.95325 11.5637 5.14325L13.0417 11.1893L10.7117 13.5193C11.6137 14.9923 12.7697 16.4653 14.1517 17.8483C15.5337 19.2313 17.0027 20.3823 18.4707 21.2883L20.8057 18.9543Z" stroke="black" stroke-width="2" stroke-miterlimit="10"/>
<path d="M17 11C19.209 11 21 12.791 21 15" stroke="black" stroke-width="2" stroke-miterlimit="10"/>
<path d="M17 6C21.971 6 26 10.029 26 15" stroke="black" stroke-width="2" stroke-miterlimit="10"/>
</svg>
