<svg width="25" height="24" viewBox="0 0 25 24" fill="none" xmlns="http://www.w3.org/2000/svg">
<path d="M17.306 14.9538L23.357 16.4358C23.547 17.5238 23.552 18.5348 23.348 19.4268C23.153 20.3018 22.759 21.0588 22.16 21.6568C20.007 23.8098 15.778 23.2888 11.559 20.7008C10.09 19.7948 8.62202 18.6428 7.24002 17.2608C5.85802 15.8788 4.70202 14.4058 3.80002 12.9318C1.21102 8.72176 0.690021 4.49277 2.84302 2.33977C3.44102 1.74177 4.19802 1.34677 5.07302 1.15177C5.96602 0.947765 6.97702 0.952766 8.06402 1.14277L9.54202 7.18877L7.21202 9.51877C8.11402 10.9918 9.27002 12.4648 10.652 13.8478C12.034 15.2308 13.503 16.3818 14.971 17.2878L17.306 14.9538Z" stroke="black" stroke-width="2" stroke-miterlimit="10"/>
</svg>
