<svg width="33" height="32" viewBox="0 0 33 32" fill="none" xmlns="http://www.w3.org/2000/svg">
<path d="M21.306 18.9538L27.357 20.4358C27.547 21.5238 27.552 22.5348 27.348 23.4268C27.153 24.3018 26.759 25.0588 26.16 25.6568C24.007 27.8098 19.778 27.2888 15.559 24.7008C14.09 23.7948 12.622 22.6428 11.24 21.2608C9.85802 19.8788 8.70202 18.4058 7.80002 16.9318C5.21102 12.7218 4.69002 8.49277 6.84302 6.33977C7.44102 5.74177 8.19802 5.34677 9.07302 5.15177C9.96602 4.94777 10.977 4.95277 12.064 5.14277L13.542 11.1888L11.212 13.5188C12.114 14.9918 13.27 16.4648 14.652 17.8478C16.034 19.2308 17.503 20.3818 18.971 21.2878L21.306 18.9538Z" stroke="black" stroke-width="2" stroke-miterlimit="10"/>
<path d="M17.5 11C19.709 11 21.5 12.791 21.5 15" stroke="black" stroke-width="2" stroke-miterlimit="10"/>
<path d="M17.5 6C22.471 6 26.5 10.029 26.5 15" stroke="black" stroke-width="2" stroke-miterlimit="10"/>
</svg>
