<svg width="64" height="64" viewBox="0 0 64 64" fill="none" xmlns="http://www.w3.org/2000/svg">
<path d="M44.3004 40.5996H28.9004" stroke="black" stroke-width="2" stroke-miterlimit="10"/>
<path d="M15 18H38.8C41 18 43 18.8 44.5 20.3L54.8 30.6C57.4 33.2 58.1 37.3 56.5 40.6" stroke="black" stroke-width="2" stroke-miterlimit="10"/>
<path d="M17 40.5996H11" stroke="black" stroke-width="2" stroke-miterlimit="10"/>
<path d="M53.2004 40.6006C53.2004 43.1006 51.2004 45.0006 48.8004 45.0006C46.4004 45.0006 44.4004 43.0006 44.4004 40.6006" stroke="black" stroke-width="2" stroke-miterlimit="10"/>
<path d="M53.2004 40.6002C53.2004 38.1002 51.2004 36.2002 48.8004 36.2002C46.4004 36.2002 44.4004 38.2002 44.4004 40.6002" stroke="black" stroke-width="2" stroke-miterlimit="10"/>
<path d="M25.8996 40.6006C25.8996 43.1006 23.8996 45.0006 21.4996 45.0006C19.0996 45.0006 17.0996 43.0006 17.0996 40.6006" stroke="black" stroke-width="2" stroke-miterlimit="10"/>
<path d="M25.8996 40.6002C25.8996 38.1002 23.8996 36.2002 21.4996 36.2002C19.0996 36.2002 17.0996 38.2002 17.0996 40.6002" stroke="black" stroke-width="2" stroke-miterlimit="10"/>
<path d="M53.1998 29.3H38.7998V21" stroke="black" stroke-width="2" stroke-miterlimit="10"/>
<path d="M40.8 29.2998H7" stroke="black" stroke-width="2" stroke-miterlimit="10"/>
<path d="M47 10.9167L52.1059 16L61 7" stroke="black" stroke-width="2" stroke-miterlimit="10"/>
</svg>
