<svg width="36" height="36" viewBox="0 0 36 36" fill="none" xmlns="http://www.w3.org/2000/svg">
<g filter="url(#filter0_d_3364_4522)">
<path fill-rule="evenodd" clip-rule="evenodd" d="M15.8126 27.8301V18.0469H12.2583V14H15.8126V10.9156C15.8126 7.40687 17.9029 5.46875 21.1002 5.46875C22.6323 5.46875 24.2344 5.74262 24.2344 5.74262V9.1875H22.4687C20.7301 9.1875 20.1876 10.2673 20.1876 11.3741V14H24.0708L23.4504 18.0469H20.1876V27.8301C26.8805 26.7799 32 20.9878 32 14C32 6.26801 25.732 0 18 0C10.268 0 4 6.26801 4 14C4 20.9879 9.11959 26.78 15.8126 27.8301Z" fill="white"/>
</g>
<defs>
<filter id="filter0_d_3364_4522" x="0" y="0" width="36" height="36" filterUnits="userSpaceOnUse" color-interpolation-filters="sRGB">
<feFlood flood-opacity="0" result="BackgroundImageFix"/>
<feColorMatrix in="SourceAlpha" type="matrix" values="0 0 0 0 0 0 0 0 0 0 0 0 0 0 0 0 0 0 127 0" result="hardAlpha"/>
<feOffset dy="4"/>
<feGaussianBlur stdDeviation="2"/>
<feComposite in2="hardAlpha" operator="out"/>
<feColorMatrix type="matrix" values="0 0 0 0 0 0 0 0 0 0 0 0 0 0 0 0 0 0 0.25 0"/>
<feBlend mode="normal" in2="BackgroundImageFix" result="effect1_dropShadow_3364_4522"/>
<feBlend mode="normal" in="SourceGraphic" in2="effect1_dropShadow_3364_4522" result="shape"/>
</filter>
</defs>
</svg>
