<svg width="82" height="48" viewBox="0 0 82 48" fill="none" xmlns="http://www.w3.org/2000/svg">
<path d="M35.633 43.8775C31.9341 45.9811 26.2024 47.6328 19.3553 44.174C16.6024 42.7905 14.6965 40.814 13.3835 38.6399L13.3412 38.6681C12.3812 38.8234 11.4071 38.8234 10.433 38.6399C4.03767 37.4964 0.169429 29.294 1.77884 20.3293C3.38825 11.3787 9.89649 5.054 16.2918 6.21165C17.3506 6.39518 18.353 6.79047 19.2706 7.34106C22.193 4.814 27.1906 1.66577 34.0659 1.53871C44.273 1.34106 48.0706 6.53636 57.8824 5.43518C65.4635 4.574 75.6141 -0.254231 79.3271 5.74577C82.6588 11.0964 78.3106 16.9128 71.2094 17.5764C62.1318 18.4234 53.28 15.0211 51.8541 14.4422C54.0988 15.6846 57.3459 18.3105 57.3459 23.2093C57.3459 30.5787 51.5718 32.0752 51.5718 32.0752L51.5012 32.1034C52.3624 34.0234 52.7577 36.5505 51.7835 39.6705C49.0306 48.6352 38.7671 47.2517 35.6612 43.9199L35.633 43.8775Z" fill="white"/>
<path d="M16.2805 10.4541C16.2805 10.4541 22.5403 1.75618 34.0702 1.53313C44.2702 1.33689 48.0749 6.54348 57.8852 5.43383C65.4579 4.5783 75.6071 -0.254167 79.3342 5.7416C82.6603 11.0922 78.3064 16.9072 71.2038 17.5764C61.3003 18.5096 51.6636 14.3618 51.6636 14.3618" stroke="#306049" stroke-width="2" stroke-miterlimit="10" stroke-linecap="round"/>
<path d="M49.7634 13.557C49.7634 13.557 57.353 15.7241 57.353 23.2092C57.353 30.5801 51.5704 32.078 51.5704 32.078" stroke="#306049" stroke-width="2" stroke-miterlimit="10" stroke-linecap="round"/>
<path d="M47.4789 27.4164C47.4789 27.4164 54.3189 31.4639 51.7904 39.6719C49.029 48.6366 38.7697 47.2531 35.6653 43.927" stroke="#306049" stroke-width="2" stroke-miterlimit="10" stroke-linecap="round"/>
<path d="M40.155 40.3272C40.155 40.3272 31.5235 50.3112 19.3513 44.1756C8.46656 38.6895 10.7889 23.9281 10.7889 23.9281" stroke="#306049" stroke-width="2" stroke-miterlimit="10" stroke-linecap="round"/>
<path d="M25.1465 11.0286C25.1465 11.0286 28.6322 9.92597 33.2839 10.6601" stroke="#306049" stroke-width="2" stroke-miterlimit="10" stroke-linecap="round"/>
<path d="M23.8858 16.358C26.026 16.3114 29.4425 16.5373 33.0947 17.9745" stroke="#306049" stroke-width="2" stroke-miterlimit="10" stroke-linecap="round"/>
<path d="M21.8499 21.436C23.6937 21.8709 26.4368 22.7334 29.1121 24.3852" stroke="#306049" stroke-width="2" stroke-miterlimit="10" stroke-linecap="round"/>
<path d="M13.3383 38.6696C12.3811 38.8221 11.4084 38.8193 10.4385 38.6442C4.04037 37.4908 0.162251 29.2927 1.77731 20.3364C3.39378 11.3774 9.88931 5.05127 16.2888 6.20468C17.3547 6.39668 18.3514 6.78491 19.2634 7.33974" stroke="#306049" stroke-width="2" stroke-miterlimit="10" stroke-linecap="round"/>
</svg>
