<svg width="28" height="28" viewBox="0 0 28 28" fill="none" xmlns="http://www.w3.org/2000/svg">
<path fill-rule="evenodd" clip-rule="evenodd" d="M18.9 2.8H9.1C5.62061 2.8 2.8 5.62061 2.8 9.1V18.9C2.8 22.3794 5.62061 25.2 9.1 25.2H18.9C22.3794 25.2 25.2 22.3794 25.2 18.9V9.1C25.2 5.62061 22.3794 2.8 18.9 2.8ZM9.1 0C4.07421 0 0 4.07421 0 9.1V18.9C0 23.9258 4.07421 28 9.1 28H18.9C23.9258 28 28 23.9258 28 18.9V9.1C28 4.07421 23.9258 0 18.9 0H9.1ZM21.3499 4.89966C21.2915 4.89968 21.2332 4.90261 21.1752 4.90845C21.1171 4.91428 21.0594 4.92301 21.0022 4.93461C20.945 4.94618 20.8885 4.96061 20.8327 4.97783C20.777 4.99507 20.7221 5.01509 20.6684 5.03781C20.6146 5.06054 20.5621 5.08596 20.5109 5.11395C20.4597 5.14191 20.4099 5.17241 20.3617 5.20534C20.3136 5.2383 20.2671 5.27364 20.2225 5.31125C20.1778 5.34882 20.1351 5.38861 20.0945 5.43045C20.0539 5.47232 20.0153 5.51619 19.9791 5.56191C19.9428 5.60761 19.9088 5.6551 19.8773 5.70419C19.8458 5.75327 19.8167 5.80389 19.7903 5.85587C19.7638 5.90789 19.7399 5.96119 19.7188 6.01559C19.6977 6.06996 19.6792 6.12534 19.6636 6.18155C19.648 6.23777 19.6353 6.29474 19.6254 6.35224C19.6154 6.40973 19.6084 6.46768 19.6042 6.52587C19.6013 6.56707 19.5999 6.60836 19.5999 6.64966C19.5999 6.70802 19.6028 6.76634 19.6086 6.82441C19.6144 6.88246 19.6232 6.94018 19.6347 6.99736C19.6463 7.05454 19.6608 7.11111 19.678 7.16685C19.6953 7.22258 19.7153 7.27742 19.738 7.33115C19.7607 7.3849 19.7861 7.43748 19.8141 7.48869C19.8421 7.53989 19.8726 7.58966 19.9055 7.63781C19.9385 7.68595 19.9738 7.73241 20.0114 7.77702C20.049 7.82164 20.0887 7.86436 20.1306 7.90502C20.1725 7.94567 20.2163 7.9842 20.262 8.02046C20.3077 8.05674 20.3552 8.0907 20.4043 8.12223C20.4534 8.15376 20.5041 8.18281 20.5561 8.20927C20.6081 8.23574 20.6614 8.2596 20.7158 8.28075C20.7701 8.3019 20.8255 8.32031 20.8818 8.33592C20.938 8.35151 20.9949 8.36428 21.0524 8.37418C21.1099 8.38411 21.1679 8.39116 21.2261 8.3953C21.2673 8.39821 21.3086 8.39967 21.3499 8.39966C21.4082 8.39967 21.4665 8.39676 21.5246 8.39094C21.5826 8.38511 21.6403 8.37638 21.6975 8.36478C21.7547 8.35319 21.8112 8.33874 21.867 8.32149C21.9227 8.30425 21.9776 8.28423 22.0313 8.26151C22.0851 8.2388 22.1376 8.21341 22.1888 8.18545C22.24 8.15746 22.2898 8.12693 22.338 8.09397C22.3861 8.06104 22.4326 8.02572 22.4773 7.98815C22.5219 7.95054 22.5646 7.91073 22.6052 7.86886C22.6458 7.82702 22.6844 7.78317 22.7206 7.73748C22.7569 7.69178 22.7909 7.64429 22.8224 7.5952C22.8539 7.5461 22.883 7.49545 22.9094 7.44345C22.9359 7.39146 22.9598 7.33817 22.9809 7.2838C23.0021 7.22941 23.0205 7.174 23.0361 7.11777C23.0517 7.06154 23.0644 7.00457 23.0744 6.94707C23.0843 6.88959 23.0913 6.83164 23.0955 6.77345C23.0984 6.73225 23.0999 6.69096 23.0999 6.64966C23.0998 6.59132 23.0969 6.53302 23.0911 6.47498C23.0853 6.41693 23.0766 6.35921 23.065 6.30203C23.0534 6.24485 23.0389 6.18828 23.0217 6.13254C23.0044 6.07681 22.9844 6.02197 22.9617 5.96824C22.939 5.91449 22.9136 5.86191 22.8856 5.8107C22.8576 5.7595 22.8271 5.70973 22.7942 5.66158C22.7612 5.61341 22.7259 5.56693 22.6883 5.5223C22.6507 5.47767 22.6109 5.43495 22.5691 5.3943C22.5272 5.35365 22.4834 5.31512 22.4377 5.27885C22.392 5.2426 22.3445 5.20866 22.2954 5.17716C22.2463 5.14563 22.1956 5.11658 22.1436 5.09012C22.0916 5.06365 22.0383 5.03979 21.984 5.01864C21.9296 4.99749 21.8742 4.97908 21.818 4.96347C21.7617 4.94786 21.7048 4.93506 21.6473 4.92514C21.5898 4.91523 21.5318 4.90821 21.4736 4.90409C21.4324 4.90115 21.3912 4.89968 21.3499 4.89966ZM18.2 14C18.2 16.3196 16.3196 18.2 14 18.2C11.6804 18.2 9.8 16.3196 9.8 14C9.8 11.6804 11.6804 9.8 14 9.8C16.3196 9.8 18.2 11.6804 18.2 14ZM21 14C21 17.866 17.866 21 14 21C10.134 21 7 17.866 7 14C7 10.134 10.134 7 14 7C17.866 7 21 10.134 21 14Z" fill="white"/>
</svg>
