<svg width="200" height="200" viewBox="0 0 200 200" fill="none" xmlns="http://www.w3.org/2000/svg">
<path d="M100 200C155.228 200 200 155.228 200 100C200 44.7715 155.228 0 100 0C44.7715 0 0 44.7715 0 100C0 155.228 44.7715 200 100 200Z" fill="black"/>
<path d="M112.533 95.2267V94.7107C121.994 93.5067 141.431 89.9807 141.431 73.4247C141.431 55.9227 122.94 52.0527 109.609 52.0527C103.349 52.0527 57.1465 52.0527 57.1465 52.0527V52.7407L66.3245 62.7387V137.263L57.1465 147.261V147.949C57.1465 147.949 101.891 147.949 109.265 147.949C125.262 147.949 147.839 141.542 146.935 118.535C146.006 94.8577 112.533 95.2267 112.533 95.2267ZM93.2685 62.7377C93.2685 57.9217 95.1665 55.4917 100.32 55.4917C106.814 55.4917 114.941 61.4257 114.941 75.0147C114.941 88.6037 108.276 92.9037 103.846 94.1077C101.321 94.7937 96.2155 95.0247 93.2675 95.1017V62.7377H93.2685ZM101.868 144.766C96.5585 144.28 93.2675 141.025 93.2675 134.734V97.3767H100.491C110.296 97.3767 118.724 100.903 118.724 121.975C118.726 142.307 107.975 145.325 101.868 144.766Z" fill="white"/>
</svg>
