<svg width="39" height="24" viewBox="0 0 39 24" fill="none" xmlns="http://www.w3.org/2000/svg">
<path d="M19.5 19.334C17.647 17.44 16.5 14.852 16.5 12C16.5 9.148 17.647 6.56 19.5 4.666C21.353 6.56 22.5 9.148 22.5 12C22.5 14.852 21.353 17.44 19.5 19.334ZM1.5 12C1.5 6.21 6.21 1.5 12 1.5C14.397 1.5 16.602 2.316 18.371 3.673C16.288 5.831 15 8.763 15 12C15 15.237 16.288 18.169 18.371 20.327C16.602 21.684 14.397 22.5 12 22.5C6.21 22.5 1.5 17.79 1.5 12ZM27 22.5C24.603 22.5 22.398 21.684 20.629 20.327C22.712 18.169 24 15.237 24 12C24 8.763 22.712 5.831 20.629 3.673C22.398 2.316 24.603 1.5 27 1.5C32.79 1.5 37.5 6.21 37.5 12C37.5 17.79 32.79 22.5 27 22.5Z" fill="white"/>
</svg>
