<svg width="120" height="60" viewBox="0 0 120 60" fill="none" xmlns="http://www.w3.org/2000/svg">
<path d="M0 1.18491L7.434 0.711914L7.524 2.10591L4.097 2.32391L7.707 4.91391L7.817 6.61491L3.951 3.76291L0.394 7.28291L0.28 5.52091L3.476 2.36391L0.09 2.57891L0 1.18491Z" fill="black"/>
<path d="M1.49023 13.1463L3.77123 13.6273L8.33323 9.8623L8.72823 11.3943L5.38723 13.9703L9.58023 14.6983L9.95123 16.1413L1.86223 14.5893L1.49023 13.1463Z" fill="black"/>
<path d="M4.50195 22.7541L11.231 19.5801L13.869 25.0891L7.14095 28.2631L6.53595 27.0021L12.078 24.3881L10.648 21.4011L5.10595 24.0151L4.50195 22.7541Z" fill="black"/>
<path d="M12.9807 36.9516L16.9537 33.9936L11.0377 34.3806L10.1807 33.2466L16.1397 28.8096L16.9967 29.9426L13.0237 32.9016L18.9397 32.5146L19.7967 33.6476L13.8367 38.0856L12.9807 36.9516Z" fill="black"/>
<path d="M19.0781 43.4891L23.2131 38.9901L21.4781 37.4191L22.3641 36.4551L26.8741 40.5381L25.9881 41.5021L24.2531 39.9311L20.1181 44.4301L19.0781 43.4891Z" fill="black"/>
<path d="M25.9814 49.0689L29.9294 42.7979L31.1224 43.5378L29.7854 45.6628L31.2594 46.5769C31.3184 46.6129 31.3984 46.6659 31.5014 46.7359C31.6044 46.8059 31.6914 46.8729 31.7654 46.9379C32.1034 47.2289 32.3334 47.5429 32.4554 47.8819C32.5774 48.2199 32.6074 48.5679 32.5424 48.9258C32.4784 49.2838 32.3354 49.6378 32.1134 49.9888C31.8924 50.3398 31.6354 50.6229 31.3414 50.8389C31.0464 51.0539 30.7204 51.1809 30.3594 51.2199C29.9994 51.2589 29.6124 51.1909 29.1984 51.0149C29.1094 50.9759 29.0114 50.9259 28.9034 50.8679C28.7954 50.8089 28.7114 50.7609 28.6504 50.7229L25.9814 49.0689ZM27.8704 48.7029L29.2914 49.5849C29.3524 49.6229 29.4224 49.6619 29.4994 49.7009C29.5764 49.7409 29.6504 49.7709 29.7224 49.7909C29.9114 49.8479 30.0814 49.8509 30.2344 49.8029C30.3864 49.7549 30.5194 49.6779 30.6324 49.5709C30.7454 49.4659 30.8374 49.3569 30.9094 49.2429C30.9804 49.1299 31.0394 48.9999 31.0844 48.8529C31.1304 48.7059 31.1414 48.5529 31.1194 48.3959C31.0964 48.2389 31.0184 48.0879 30.8854 47.9449C30.8344 47.8899 30.7754 47.8359 30.7054 47.7849C30.6364 47.7339 30.5704 47.6889 30.5094 47.6509L29.0884 46.7689L27.8704 48.7029Z" fill="black"/>
<path d="M41.4053 56.6328L43.4023 49.5088L46.2733 50.3008C46.7853 50.4418 47.1703 50.6578 47.4293 50.9478C47.6883 51.2378 47.8473 51.5558 47.9073 51.9038C47.9683 52.2508 47.9533 52.5808 47.8663 52.8938C47.7543 53.2928 47.5703 53.5988 47.3163 53.8128C47.0613 54.0268 46.7633 54.1348 46.4223 54.1358L46.4923 53.8888C46.9153 54.1048 47.1933 54.4048 47.3283 54.7858C47.4623 55.1678 47.4753 55.5568 47.3633 55.9528C47.2433 56.3778 47.0603 56.7308 46.8113 57.0108C46.5633 57.2898 46.2523 57.4768 45.8783 57.5708C45.5043 57.6648 45.0733 57.6448 44.5853 57.5098L41.4053 56.6328ZM43.1363 55.7458L44.8013 56.2058C44.9843 56.2558 45.1573 56.2618 45.3223 56.2238C45.4863 56.1858 45.6293 56.1078 45.7503 55.9898C45.8703 55.8718 45.9583 55.7178 46.0113 55.5268C46.0583 55.3578 46.0663 55.1988 46.0333 55.0468C46.0003 54.8968 45.9243 54.7618 45.8053 54.6458C45.6863 54.5298 45.5203 54.4418 45.3123 54.3838L43.6473 53.9238L43.1363 55.7458ZM43.9983 52.6688L45.4733 53.0758C45.6263 53.1188 45.7693 53.1288 45.9043 53.1098C46.0383 53.0898 46.1563 53.0348 46.2573 52.9428C46.3573 52.8518 46.4323 52.7188 46.4823 52.5438C46.5433 52.3258 46.5263 52.1238 46.4313 51.9378C46.3363 51.7518 46.1593 51.6238 45.9003 51.5518L44.4253 51.1448L43.9983 52.6688Z" fill="black"/>
<path d="M61.3823 59.6243C60.6383 59.6423 59.9923 59.4953 59.4443 59.1853C58.8973 58.8763 58.4713 58.4353 58.1663 57.8643C57.8613 57.2923 57.7003 56.6233 57.6833 55.8573C57.6653 55.0913 57.7953 54.4153 58.0743 53.8293C58.3523 53.2443 58.7573 52.7843 59.2893 52.4513C59.8213 52.1173 60.4593 51.9413 61.2043 51.9243C61.9493 51.9063 62.5953 52.0533 63.1423 52.3633C63.6883 52.6723 64.1153 53.1133 64.4193 53.6843C64.7233 54.2553 64.8853 54.9253 64.9033 55.6913C64.9213 56.4573 64.7903 57.1343 64.5123 57.7193C64.2343 58.3043 63.8293 58.7643 63.2973 59.0973C62.7663 59.4323 62.1273 59.6073 61.3823 59.6243ZM61.3523 58.3103C61.8243 58.3063 62.2153 58.1963 62.5243 57.9803C62.8333 57.7643 63.0613 57.4633 63.2093 57.0763C63.3573 56.6903 63.4253 56.2393 63.4143 55.7263C63.4023 55.2123 63.3133 54.7693 63.1483 54.3963C62.9823 54.0233 62.7403 53.7363 62.4213 53.5343C62.1033 53.3333 61.7073 53.2343 61.2353 53.2373C60.7623 53.2413 60.3713 53.3513 60.0623 53.5673C59.7543 53.7833 59.5253 54.0843 59.3773 54.4713C59.2303 54.8583 59.1613 55.3083 59.1733 55.8213C59.1853 56.3353 59.2733 56.7783 59.4393 57.1513C59.6053 57.5243 59.8473 57.8113 60.1663 58.0133C60.4843 58.2153 60.8803 58.3143 61.3523 58.3103Z" fill="black"/>
<path d="M70.0875 60.0004L69.5195 57.5274C69.7385 57.4774 69.9115 57.3814 70.0395 57.2384C70.1675 57.0954 70.2575 56.9144 70.3095 56.6924C70.3615 56.4724 70.3855 56.2214 70.3815 55.9414C70.3775 55.6614 70.3525 55.3614 70.3085 55.0424C70.2505 54.6334 70.1895 54.2324 70.1275 53.8374C70.0655 53.4434 69.9995 53.0324 69.9305 52.6084C69.8615 52.1834 69.7885 51.7234 69.7095 51.2284L74.5345 50.1484L75.8965 56.0874L76.4515 55.9624L77.0185 58.4354L75.6465 58.7454L75.3705 57.5434L71.1835 58.4884L71.4585 59.6904L70.0875 60.0004ZM71.5685 57.0644L74.5245 56.3964L73.4555 51.7304L71.2535 52.2164C71.3055 52.5524 71.3565 52.8604 71.4045 53.1404C71.4535 53.4214 71.4995 53.7054 71.5445 53.9934C71.5895 54.2814 71.6355 54.6054 71.6815 54.9624C71.7285 55.3204 71.7605 55.6164 71.7795 55.8494C71.7975 56.0814 71.7915 56.2894 71.7605 56.4724C71.7285 56.6564 71.6645 56.8534 71.5685 57.0644Z" fill="black"/>
<path d="M86.2569 53.4996L84.1989 49.0136L83.3099 54.8316L82.0109 55.4196L78.9229 48.6906L80.2229 48.1026L82.2809 52.5886L83.1699 46.7706L84.4689 46.1826L87.5569 52.9116L86.2569 53.4996Z" fill="black"/>
<path d="M92.6563 49.9665L88.2803 43.9825L89.4183 43.1615L91.2173 45.6215L93.9133 43.6785L92.1143 41.2185L93.2533 40.3975L97.6293 46.3815L96.4913 47.2025L94.6863 44.7335L91.9903 46.6765L93.7953 49.1445L92.6563 49.9665Z" fill="black"/>
<path d="M106.083 38.098L100.151 33.625L101.002 32.513L103.738 34.575L102.717 30.273L103.755 28.915L104.797 33.582L109.807 33.233L108.73 34.64L104.232 34.949L106.934 36.987L106.083 38.098Z" fill="black"/>
<path d="M112.243 29.3396L111.193 28.8286C111.272 28.6916 111.319 28.5666 111.334 28.4506C111.349 28.3366 111.327 28.2216 111.27 28.1076C111.213 27.9936 111.116 27.8706 110.979 27.7396C110.842 27.6086 110.662 27.4606 110.441 27.2946C110.09 27.0326 109.713 26.7716 109.309 26.5126C108.905 26.2526 108.506 26.0066 108.11 25.7726C107.715 25.5386 107.353 25.3296 107.023 25.1456C106.693 24.9626 106.429 24.8176 106.232 24.7096L108.468 20.1826L115.157 23.4376L114.538 24.6916L109.028 22.0106L107.98 24.1306C108.148 24.2276 108.365 24.3536 108.634 24.5096C108.903 24.6646 109.197 24.8426 109.518 25.0406C109.839 25.2386 110.168 25.4506 110.507 25.6756C110.845 25.9016 111.167 26.1316 111.473 26.3686C111.772 26.5946 112.027 26.8156 112.237 27.0326C112.448 27.2486 112.596 27.4726 112.683 27.7046C112.771 27.9366 112.782 28.1846 112.715 28.4496C112.651 28.7146 112.494 29.0116 112.243 29.3396Z" fill="black"/>
<path d="M118.383 13.4723L113.577 12.2313L117.568 16.5833L117.208 17.9553L109.998 16.0933L110.358 14.7213L115.165 15.9633L111.174 11.6103L111.534 10.2393L118.744 12.1013L118.383 13.4723Z" fill="black"/>
<path d="M119.628 6.352L112.192 5.905L112.277 4.511L115.706 4.717L112.449 1.702L112.552 0L116.031 3.306L120 0.252L119.893 2.015L116.325 4.753L119.713 4.957L119.628 6.352Z" fill="black"/>
</svg>
