<svg width="120" height="94" viewBox="0 0 120 94" fill="none" xmlns="http://www.w3.org/2000/svg">
<path d="M74.08 32.7598C75.57 35.3798 76.74 39.4398 74.29 44.2898C73.31 46.2398 71.91 47.5898 70.37 48.5198L70.39 48.5498C70.5 49.2298 70.5 49.9198 70.37 50.6098C69.56 55.1398 63.75 57.8798 57.4 56.7398C51.06 55.5998 46.58 50.9898 47.4 46.4598C47.53 45.7098 47.81 44.9998 48.2 44.3498C46.41 42.2798 44.18 38.7398 44.09 33.8698C43.95 26.6398 47.63 23.9498 46.85 16.9998C46.24 11.6298 42.82 4.43978 47.07 1.80978C50.86 -0.550223 54.98 2.52978 55.45 7.55978C56.05 13.9898 53.64 20.2598 53.23 21.2698C54.11 19.6798 55.97 17.3798 59.44 17.3798C64.66 17.3798 65.72 21.4698 65.72 21.4698L65.74 21.5198C67.1 20.9098 68.89 20.6298 71.1 21.3198C77.45 23.2698 76.47 30.5398 74.11 32.7398L74.08 32.7598Z" fill="white"/>
<path d="M50.405 46.468C50.405 46.468 44.244 42.034 44.086 33.8671C43.947 26.6421 47.635 23.947 46.849 16.998C46.243 11.634 42.82 4.44505 47.067 1.80505C50.857 -0.55095 54.976 2.53305 55.45 7.56405C56.111 14.5791 53.173 21.4051 53.173 21.4051" stroke="black" stroke-width="2" stroke-miterlimit="10" stroke-linecap="round"/>
<path d="M52.603 22.751C52.603 22.751 54.138 17.375 59.44 17.375C64.661 17.375 65.722 21.471 65.722 21.471" stroke="black" stroke-width="2" stroke-miterlimit="10" stroke-linecap="round"/>
<path d="M62.42 24.3693C62.42 24.3693 65.287 19.5243 71.101 21.3153C77.451 23.2713 76.471 30.5383 74.115 32.7373" stroke="black" stroke-width="2" stroke-miterlimit="10" stroke-linecap="round"/>
<path d="M71.565 29.5571C71.565 29.5571 78.637 35.6711 74.291 44.2931C70.405 52.0031 59.949 50.3581 59.949 50.3581" stroke="black" stroke-width="2" stroke-miterlimit="10" stroke-linecap="round"/>
<path d="M50.812 40.1878C50.812 40.1878 50.031 37.7188 50.551 34.4238" stroke="black" stroke-width="2" stroke-miterlimit="10" stroke-linecap="round"/>
<path d="M54.587 41.0811C54.554 39.5651 54.714 37.1451 55.732 34.5581" stroke="black" stroke-width="2" stroke-miterlimit="10" stroke-linecap="round"/>
<path d="M58.184 42.5229C58.492 41.2169 59.103 39.2739 60.273 37.3789" stroke="black" stroke-width="2" stroke-miterlimit="10" stroke-linecap="round"/>
<path d="M70.391 48.552C70.499 49.23 70.497 49.919 70.373 50.606C69.556 55.138 63.749 57.885 57.405 56.741C51.059 55.596 46.578 50.995 47.395 46.462C47.531 45.707 47.806 45.001 48.199 44.355" stroke="black" stroke-width="2" stroke-miterlimit="10" stroke-linecap="round"/>
<path d="M0 35.1849L7.434 34.7119L7.524 36.1059L4.097 36.3239L7.707 38.9139L7.817 40.6149L3.951 37.7629L0.394 41.2829L0.28 39.5209L3.476 36.3639L0.09 36.5789L0 35.1849Z" fill="black"/>
<path d="M1.48999 47.1458L3.77099 47.6268L8.33299 43.8618L8.72799 45.3938L5.38699 47.9698L9.57999 48.6978L9.95099 50.1408L1.86199 48.5888L1.48999 47.1458Z" fill="black"/>
<path d="M4.50195 56.7541L11.231 53.5801L13.869 59.0891L7.14095 62.2631L6.53595 61.0021L12.078 58.3881L10.648 55.4011L5.10595 58.0151L4.50195 56.7541Z" fill="black"/>
<path d="M12.981 70.9521L16.954 67.9941L11.038 68.3811L10.181 67.2471L16.14 62.8101L16.997 63.9431L13.024 66.9021L18.94 66.5151L19.797 67.6481L13.837 72.0861L12.981 70.9521Z" fill="black"/>
<path d="M19.078 77.4891L23.213 72.9901L21.478 71.4191L22.364 70.4551L26.874 74.5381L25.988 75.5021L24.253 73.9311L20.118 78.4301L19.078 77.4891Z" fill="black"/>
<path d="M25.981 83.0689L29.929 76.7979L31.122 77.5378L29.785 79.6628L31.259 80.5769C31.318 80.6129 31.398 80.6659 31.501 80.7359C31.604 80.8059 31.691 80.8729 31.765 80.9379C32.103 81.2289 32.333 81.5429 32.455 81.8819C32.577 82.2199 32.607 82.5679 32.542 82.9258C32.478 83.2838 32.335 83.6378 32.113 83.9888C31.892 84.3398 31.635 84.6229 31.341 84.8389C31.046 85.0539 30.72 85.1809 30.359 85.2199C29.999 85.2589 29.612 85.1909 29.198 85.0149C29.109 84.9759 29.011 84.9259 28.903 84.8679C28.795 84.8089 28.711 84.7609 28.65 84.7229L25.981 83.0689ZM27.87 82.7029L29.291 83.5849C29.352 83.6229 29.422 83.6619 29.499 83.7009C29.576 83.7409 29.65 83.7709 29.722 83.7909C29.911 83.8479 30.081 83.8509 30.234 83.8029C30.386 83.7549 30.519 83.6779 30.632 83.5709C30.745 83.4659 30.837 83.3569 30.909 83.2429C30.98 83.1299 31.039 82.9999 31.084 82.8529C31.13 82.7059 31.141 82.5529 31.119 82.3959C31.096 82.2389 31.018 82.0879 30.885 81.9449C30.834 81.8899 30.775 81.8359 30.705 81.7849C30.636 81.7339 30.57 81.6889 30.509 81.6509L29.088 80.7689L27.87 82.7029Z" fill="black"/>
<path d="M41.405 90.6328L43.402 83.5088L46.273 84.3008C46.785 84.4418 47.17 84.6578 47.429 84.9478C47.688 85.2378 47.847 85.5558 47.907 85.9038C47.968 86.2508 47.953 86.5808 47.866 86.8938C47.754 87.2928 47.57 87.5988 47.316 87.8128C47.061 88.0268 46.763 88.1348 46.422 88.1358L46.492 87.8888C46.915 88.1048 47.193 88.4048 47.328 88.7858C47.462 89.1678 47.475 89.5568 47.363 89.9528C47.243 90.3778 47.06 90.7308 46.811 91.0108C46.563 91.2898 46.252 91.4768 45.878 91.5708C45.504 91.6648 45.073 91.6448 44.585 91.5098L41.405 90.6328ZM43.136 89.7458L44.801 90.2058C44.984 90.2558 45.157 90.2618 45.322 90.2238C45.486 90.1858 45.629 90.1078 45.75 89.9898C45.87 89.8718 45.958 89.7178 46.011 89.5268C46.058 89.3578 46.066 89.1988 46.033 89.0468C46 88.8968 45.924 88.7618 45.805 88.6458C45.686 88.5298 45.52 88.4418 45.312 88.3838L43.647 87.9238L43.136 89.7458ZM43.998 86.6688L45.473 87.0758C45.626 87.1188 45.769 87.1288 45.904 87.1098C46.038 87.0898 46.156 87.0348 46.257 86.9428C46.357 86.8518 46.432 86.7188 46.482 86.5438C46.543 86.3258 46.526 86.1238 46.431 85.9378C46.336 85.7518 46.159 85.6238 45.9 85.5518L44.425 85.1448L43.998 86.6688Z" fill="black"/>
<path d="M61.382 93.6238C60.638 93.6418 59.992 93.4948 59.444 93.1848C58.897 92.8758 58.471 92.4348 58.166 91.8638C57.861 91.2918 57.7 90.6228 57.683 89.8568C57.665 89.0908 57.795 88.4148 58.074 87.8288C58.352 87.2438 58.757 86.7838 59.289 86.4508C59.821 86.1168 60.459 85.9408 61.204 85.9238C61.949 85.9058 62.595 86.0528 63.142 86.3628C63.688 86.6718 64.115 87.1128 64.419 87.6838C64.723 88.2548 64.885 88.9248 64.903 89.6908C64.921 90.4568 64.79 91.1338 64.512 91.7188C64.234 92.3038 63.829 92.7638 63.297 93.0968C62.766 93.4318 62.127 93.6068 61.382 93.6238ZM61.352 92.3098C61.824 92.3058 62.215 92.1958 62.524 91.9798C62.833 91.7638 63.061 91.4628 63.209 91.0758C63.357 90.6898 63.425 90.2388 63.414 89.7258C63.402 89.2118 63.313 88.7688 63.148 88.3958C62.982 88.0228 62.74 87.7358 62.421 87.5338C62.103 87.3328 61.707 87.2338 61.235 87.2368C60.762 87.2408 60.371 87.3508 60.062 87.5668C59.754 87.7828 59.525 88.0838 59.377 88.4708C59.23 88.8578 59.161 89.3078 59.173 89.8208C59.185 90.3348 59.273 90.7778 59.439 91.1508C59.605 91.5238 59.847 91.8108 60.166 92.0128C60.484 92.2148 60.88 92.3138 61.352 92.3098Z" fill="black"/>
<path d="M70.088 94L69.52 91.527C69.739 91.477 69.912 91.3809 70.04 91.2379C70.168 91.0949 70.258 90.914 70.31 90.692C70.362 90.472 70.386 90.221 70.382 89.941C70.378 89.661 70.353 89.361 70.309 89.042C70.251 88.633 70.19 88.232 70.128 87.837C70.066 87.443 70 87.032 69.931 86.608C69.862 86.183 69.789 85.723 69.71 85.228L74.535 84.1479L75.897 90.087L76.452 89.962L77.019 92.435L75.647 92.7449L75.371 91.5429L71.184 92.4879L71.459 93.6899L70.088 94ZM71.569 91.0639L74.525 90.396L73.456 85.7299L71.254 86.216C71.306 86.5519 71.357 86.8599 71.405 87.1399C71.454 87.4209 71.5 87.705 71.545 87.993C71.59 88.281 71.636 88.605 71.682 88.962C71.729 89.32 71.761 89.6159 71.78 89.8489C71.798 90.0809 71.792 90.289 71.761 90.472C71.729 90.656 71.665 90.8529 71.569 91.0639Z" fill="black"/>
<path d="M86.257 87.5001L84.199 83.0141L83.31 88.8321L82.011 89.4201L78.923 82.6911L80.223 82.1031L82.281 86.5891L83.17 80.7711L84.469 80.1831L87.557 86.9121L86.257 87.5001Z" fill="black"/>
<path d="M92.656 83.966L88.28 77.982L89.418 77.161L91.217 79.621L93.913 77.678L92.114 75.218L93.253 74.397L97.629 80.381L96.491 81.202L94.686 78.733L91.99 80.676L93.795 83.144L92.656 83.966Z" fill="black"/>
<path d="M106.083 72.098L100.151 67.625L101.002 66.513L103.738 68.575L102.717 64.273L103.755 62.915L104.797 67.582L109.807 67.233L108.73 68.64L104.232 68.949L106.934 70.987L106.083 72.098Z" fill="black"/>
<path d="M112.243 63.3401L111.193 62.8291C111.272 62.6921 111.319 62.5671 111.334 62.4511C111.349 62.3371 111.327 62.2221 111.27 62.1081C111.213 61.9941 111.116 61.8711 110.979 61.7401C110.842 61.6091 110.662 61.4611 110.441 61.2951C110.09 61.0331 109.713 60.7721 109.309 60.5131C108.905 60.2531 108.506 60.0071 108.11 59.7731C107.715 59.5391 107.353 59.3301 107.023 59.1461C106.693 58.9631 106.429 58.8181 106.232 58.7101L108.468 54.1831L115.157 57.4381L114.538 58.6921L109.028 56.0111L107.98 58.1311C108.148 58.2281 108.365 58.3541 108.634 58.5101C108.903 58.6651 109.197 58.8431 109.518 59.0411C109.839 59.2391 110.168 59.4511 110.507 59.6761C110.845 59.9021 111.167 60.1321 111.473 60.3691C111.772 60.5951 112.027 60.8161 112.237 61.0331C112.448 61.2491 112.596 61.4731 112.683 61.7051C112.771 61.9371 112.782 62.1851 112.715 62.4501C112.651 62.7151 112.494 63.0121 112.243 63.3401Z" fill="black"/>
<path d="M118.383 47.4718L113.577 46.2308L117.568 50.5828L117.208 51.9548L109.998 50.0928L110.358 48.7208L115.165 49.9628L111.174 45.6098L111.534 44.2388L118.744 46.1008L118.383 47.4718Z" fill="black"/>
<path d="M119.628 40.352L112.192 39.905L112.277 38.511L115.706 38.717L112.449 35.702L112.552 34L116.031 37.306L120 34.252L119.893 36.015L116.325 38.753L119.713 38.957L119.628 40.352Z" fill="black"/>
</svg>
