<svg width="33" height="32" viewBox="0 0 33 32" fill="none" xmlns="http://www.w3.org/2000/svg">
<path d="M16.5 28C23.1274 28 28.5 22.6274 28.5 16C28.5 9.37258 23.1274 4 16.5 4C9.87258 4 4.5 9.37258 4.5 16C4.5 22.6274 9.87258 28 16.5 28Z" stroke="black" stroke-width="2" stroke-miterlimit="10"/>
<path d="M11.5 19V14C11.5 11.239 13.739 9 16.5 9C19.261 9 21.5 11.239 21.5 14V19" stroke="black" stroke-width="2" stroke-miterlimit="10"/>
<path d="M7.93994 24.409L11.3779 23.358C12.6389 22.973 13.4999 21.808 13.4999 20.489V19" stroke="black" stroke-width="2" stroke-miterlimit="10"/>
<path d="M25.06 24.409L21.622 23.358C20.361 22.973 19.5 21.808 19.5 20.489V19" stroke="black" stroke-width="2" stroke-miterlimit="10"/>
</svg>
