<svg width="453" height="93" viewBox="0 0 453 93" fill="none" xmlns="http://www.w3.org/2000/svg">
<path fill-rule="evenodd" clip-rule="evenodd" d="M52.8887 41.2619V40.7707C61.9224 39.6249 80.4827 36.2697 80.4827 20.5139C80.4827 3.85876 62.8257 0.175781 50.0964 0.175781H0V0.830393L8.76374 10.3453V81.2637L0 90.7776V91.4323H49.7675C65.0426 91.4323 86.6 85.3349 85.7384 63.4411C84.8505 40.9107 52.8887 41.2619 52.8887 41.2619ZM34.4923 10.3444C34.4923 5.7612 36.3043 3.44884 41.2266 3.44884C47.4273 3.44884 55.1881 9.09656 55.1881 22.0281C55.1881 34.9596 48.8234 39.0516 44.5942 40.1974C42.1834 40.8502 37.3073 41.0696 34.4932 41.1427V10.3444H34.4923ZM42.7052 88.4039C37.6343 87.9416 34.4923 84.8437 34.4923 78.8574V43.3079H41.3906C50.7532 43.3079 58.8012 46.6631 58.8012 66.7159C58.8012 86.0644 48.5353 88.9366 42.7052 88.4039ZM387.666 11.3854C387.666 18.1022 381.898 22.5951 374.784 22.5951C367.67 22.5951 361.903 18.1022 361.903 11.3854C361.903 4.66867 367.67 0.175781 374.784 0.175781C381.898 0.175781 387.666 4.66867 387.666 11.3854ZM357.489 31.2859L388.532 26.1619V83.6575L395.102 90.7779V91.4325H357.489V90.7779L364.059 83.6575V39.0609L357.489 31.9405V31.2859ZM347.716 81.2836C342.296 81.2836 340.736 76.946 340.736 71.4626V31.9403H353.178L354.04 27.8799H340.736V5.29082H339.504C326.938 23.0917 309.446 30.5805 309.446 30.5805V31.9394H316.263V71.4617C316.263 71.654 316.262 71.8519 316.262 72.0551C316.255 75.0296 316.245 79.119 317.659 82.8555C319.602 87.9877 324.098 92.4553 333.591 92.4553C350.468 92.4553 355.764 76.4954 355.764 76.4954L354.795 76.0891C354.795 76.0891 352.643 81.2836 347.716 81.2836ZM113.014 52.9241C112.89 66.9202 120.774 76.864 133.093 76.864C145.412 76.864 151.756 66.6132 151.756 66.6132L152.598 66.8796C149.436 80.9162 140.115 92.4762 123.526 92.4762C105.047 92.4762 90.9208 79.4427 90.9208 59.3303C90.9208 38.0694 105.299 26.1844 123.035 26.1844C140.772 26.1844 152.27 35.7778 152.269 52.3102H113.021C113.018 52.5142 113.015 52.7192 113.014 52.9241ZM130.999 44.0061C132.129 36.0586 127.549 28.494 121.759 28.494C116.407 28.494 113.582 37.413 113.088 49.8172H119.748C124.84 49.8172 130.257 49.2222 130.999 44.0061ZM219.93 70.8486V70.8487C219.684 77.4604 219.514 82.003 222.722 82.3889C226.147 82.8007 227.969 75.6415 227.969 75.6415L229.128 76.1281C226.418 86.3175 220.012 92.4763 210.281 92.4763C199.022 92.4763 196.133 85.2683 195.762 78.9741C193.263 84.016 187.427 92.1323 175.665 92.4763C158.057 92.9927 154.115 78.7962 159.199 69.1504C164.313 59.445 181.909 51.6628 196.763 49.5401C196.867 46.528 196.945 44.0377 196.976 42.612C196.99 41.9669 197.016 41.2972 197.043 40.6164V40.6161V40.6158C197.253 35.209 197.491 29.1081 191.802 29.1081C182.686 29.1081 178.129 41.6306 176.775 52.3111H158.79C162.73 34.7585 177.759 26.1619 196.36 26.1619C211.142 26.1619 220.751 32.6691 220.628 42.7357C220.53 50.7157 220.259 60.6594 220.012 68.5166C219.987 69.3186 219.958 70.0969 219.93 70.8486ZM195.786 72.1246C195.834 71.2777 195.901 70.7405 195.98 70.4371C196.19 65.1271 196.48 57.5904 196.695 51.5138C183.634 55.065 180.223 65.8575 180.223 72.9363C180.223 80.5479 184.125 82.1027 187.204 82.1027C190.284 82.1027 195.369 79.4364 195.786 72.1246ZM300.951 26.1619L269.907 31.2859V31.9405L276.478 39.0609V76.4089C274.956 78.0947 271.595 81.2847 267.969 81.2847C262.549 81.2847 259.809 76.9471 259.809 71.4637L259.807 71.4628V26.1619L228.764 31.2859V31.9405L235.334 39.0609V71.4628H235.336V71.5939C235.336 74.5916 235.335 78.7237 237.005 82.5849C239.434 88.2019 245.266 92.8212 254.753 92.4555C267.622 91.9607 274.553 83.1095 277.338 78.4188C277.338 78.4188 277.087 85.9482 275.202 91.4325H307.523V90.7779L300.952 83.6575V26.1619H300.951ZM417.358 35.7785C417.358 39.0524 419.74 42.5494 426.242 45.0731C427 45.3673 427.837 45.6746 428.732 46.0034C437.841 49.3499 453 54.9187 453.001 71.4625C453.001 86.2757 439.039 92.8236 427.706 92.8236C425.197 92.8236 422.262 92.2171 419.24 91.5925C416.031 90.9294 412.724 90.2458 409.721 90.2458C404.753 90.2458 401.591 91.5965 401.591 91.5965V64.6699H402.33C402.33 64.6699 407.422 75.1455 412.76 81.4478C418.097 87.7492 423.025 90.3686 427.706 90.3686C432.387 90.3686 435.508 87.4224 435.508 83.1254C435.508 78.8284 431.976 73.9175 421.3 69.7433C410.624 65.5692 400.618 60.1129 400.933 46.9908C401.261 33.3225 411.444 26.325 424.583 26.325C426.966 26.325 429.367 26.7119 431.794 27.103C436.73 27.8984 441.775 28.7115 447.005 26.325L448.237 50.4282H447.498C447.498 50.4282 443.885 42.6117 439.614 37.3577C435.343 32.1036 430.662 28.4938 424.995 28.4938C419.328 28.4938 417.358 32.5045 417.358 35.7785Z" fill="black"/>
</svg>
