<svg width="16" height="22" viewBox="0 0 16 22" fill="none" xmlns="http://www.w3.org/2000/svg">
<path d="M6.15 21.154L6.3956 20.1845L6.38337 20.1816L6.15 21.154ZM4.344 20.468L4.84188 19.6007L4.83514 19.5969L4.344 20.468ZM2.3 18.424L1.42096 18.9009L1.42717 18.912L2.3 18.424ZM1.964 13.692L2.88955 14.0706L2.88955 14.0706L1.964 13.692ZM3.112 11.984L2.5573 11.1519L2.47113 11.2094L2.39855 11.2833L3.112 11.984ZM3.49 11.62V10.62H3.07579L2.78289 10.9129L3.49 11.62ZM10.826 11.62L11.3582 12.4666L14.296 10.62H10.826V11.62ZM9.062 12.544L9.41312 13.4803L9.42041 13.4776L9.42765 13.4748L9.062 12.544ZM7.578 13.104L7.92284 14.0427L7.93322 14.0388L7.578 13.104ZM6.192 13.846L5.61854 13.0268L5.60511 13.0362L5.592 13.046L6.192 13.846ZM5.38 14.658L4.53882 14.1172L4.53188 14.128L4.52521 14.139L5.38 14.658ZM5.352 16.73L4.44654 17.1544L4.45191 17.1659L4.45757 17.1772L5.352 16.73ZM6.052 17.528L6.64871 16.7255L6.64439 16.7223L6.052 17.528ZM7.186 18.074L6.95438 19.0468L6.95438 19.0468L7.186 18.074ZM9.818 17.836L10.3083 18.7076L10.3151 18.7037L10.3219 18.6998L9.818 17.836ZM11.022 16.688L10.2411 16.0633L10.2219 16.0873L10.2042 16.1125L11.022 16.688ZM11.302 16.212L10.3901 15.8016L10.3851 15.8127L10.3804 15.8239L11.302 16.212ZM11.484 15.666V14.666H10.6726L10.5055 15.46L11.484 15.666ZM14.956 15.666L15.9527 15.7474L16.041 14.666H14.956V15.666ZM14.62 17.108L15.5556 17.4611L15.5577 17.4553L14.62 17.108ZM13.92 18.48L13.088 17.9253L13.0836 17.9318L13.0793 17.9384L13.92 18.48ZM11.47 20.678L11.0294 19.7803L11.0294 19.7803L11.47 20.678ZM0.578 14.266H-0.422V15.266H0.578V14.266ZM0.578 11.62V10.62H-0.422V11.62H0.578ZM15.964 11.62H16.964V10.62H15.964V11.62ZM15.964 14.266V15.266H16.964V14.266H15.964ZM0.592 10.206L-0.407986 10.2113L-0.402723 11.206H0.592V10.206ZM0.578 7.56V6.56H-0.427305L-0.421986 7.56529L0.578 7.56ZM15.964 7.56H16.964V6.56H15.964V7.56ZM15.964 10.206V11.206H16.964V10.206H15.964ZM5.884 10.206L5.41825 9.32108L5.884 11.206V10.206ZM7.144 9.618L7.53366 10.539L7.54209 10.5353L7.144 9.618ZM8.628 8.96L9.04051 9.87095L9.04051 9.87095L8.628 8.96ZM9.958 8.26L10.4844 9.11027L10.4916 9.10578L10.4988 9.10118L9.958 8.26ZM10.784 7.476L9.97526 6.88783L9.94625 6.92772L9.9213 6.97028L10.784 7.476ZM11.078 6.818L12.0586 7.01412L12.0586 7.01412L11.078 6.818ZM10.98 5.25L10.0559 5.63238L10.0609 5.64392L10.98 5.25ZM10.49 4.508L9.75811 5.18942L9.76302 5.1947L9.76801 5.1999L10.49 4.508ZM9.566 3.864L9.96559 2.9473L9.96558 2.9473L9.566 3.864ZM6.99 4.004L6.44921 3.16277L6.44001 3.16883L6.99 4.004ZM6.08 4.844L6.8842 5.43841L6.88874 5.43217L6.08 4.844ZM5.716 5.502L6.65233 5.85312L6.65233 5.85312L5.716 5.502ZM5.534 6.174V7.174H6.38113L6.52039 6.3384L5.534 6.174ZM1.978 6.174L0.982107 6.08346L0.882967 7.174H1.978V6.174ZM2.412 4.396L1.48669 4.01677L1.48669 4.01678L2.412 4.396ZM3.252 2.898L4.04789 3.50357L4.05539 3.49345L3.252 2.898ZM5.478 1.064L5.04951 0.160444L5.04588 0.162184L5.478 1.064ZM10.868 0.854L10.5218 1.79215L10.5285 1.79462L10.5352 1.79699L10.868 0.854ZM12.884 2.044L12.2021 2.7755L12.2088 2.78167L12.884 2.044ZM14.2 3.934L13.282 4.33067L13.2862 4.34014L14.2 3.934ZM14.438 7.854L13.4877 7.54269L13.4853 7.55013L13.4829 7.5576L14.438 7.854ZM13.696 9.38L14.5164 9.95181L14.5205 9.94584L13.696 9.38ZM12.982 10.206V11.206H13.3747L13.6625 10.9388L12.982 10.206ZM8.25 20.42C7.6354 20.42 7.01785 20.3423 6.39558 20.1846L5.90442 22.1234C6.68215 22.3204 7.4646 22.42 8.25 22.42V20.42ZM6.38337 20.1816C5.75495 20.0308 5.24621 19.8329 4.84187 19.6007L3.84613 21.3353C4.44979 21.6818 5.14505 21.9412 5.91663 22.1264L6.38337 20.1816ZM4.83514 19.5969C4.11564 19.1912 3.56732 18.6415 3.17283 17.936L1.42717 18.912C2.00335 19.9425 2.81769 20.7554 3.85286 21.3391L4.83514 19.5969ZM3.17897 17.9471C2.78086 17.2134 2.586 16.4483 2.586 15.638H0.586C0.586 16.7877 0.867138 17.88 1.42103 18.9009L3.17897 17.9471ZM2.586 15.638C2.586 15.0834 2.68789 14.5636 2.88955 14.0706L1.03845 13.3134C0.73611 14.0524 0.586 14.83 0.586 15.638H2.586ZM2.88955 14.0706C3.08768 13.5863 3.39386 13.1241 3.82545 12.6847L2.39855 11.2833C1.80348 11.8892 1.34432 12.5657 1.03845 13.3134L2.88955 14.0706ZM3.6667 12.8161C3.77123 12.7464 3.85628 12.6679 3.91711 12.6071L2.50289 11.1929C2.49844 11.1973 2.49984 11.1956 2.50671 11.1897C2.51297 11.1844 2.53014 11.1701 2.5573 11.1519L3.6667 12.8161ZM3.91711 12.6071C3.95444 12.5698 4.04777 12.4764 4.19711 12.3271L2.78289 10.9129C2.63356 11.0622 2.54023 11.1556 2.50289 11.1929L3.91711 12.6071ZM3.49 12.62H10.826V10.62H3.49V12.62ZM10.2938 10.7734C9.6752 11.1622 9.14406 11.4374 8.69635 11.6132L9.42765 13.4748C10.0253 13.24 10.6701 12.8991 11.3582 12.4666L10.2938 10.7734ZM8.71088 11.6077C8.187 11.8041 7.69096 11.9913 7.22278 12.1692L7.93322 14.0388C8.39837 13.862 8.89167 13.6759 9.41312 13.4803L8.71088 11.6077ZM7.23318 12.1653C6.68249 12.3676 6.14433 12.6587 5.61854 13.0268L6.76546 14.6652C7.173 14.38 7.55884 14.1764 7.92282 14.0427L7.23318 12.1653ZM5.592 13.046C5.16651 13.3651 4.79493 13.7189 4.53882 14.1172L6.22118 15.1988C6.30107 15.0745 6.47082 14.8869 6.792 14.646L5.592 13.046ZM4.52521 14.139C4.24242 14.6048 4.142 15.1427 4.142 15.68H6.142C6.142 15.3773 6.20024 15.2339 6.23479 15.177L4.52521 14.139ZM4.142 15.68C4.142 16.1968 4.23227 16.6973 4.44654 17.1544L6.25746 16.3056C6.19173 16.1653 6.142 15.9658 6.142 15.68H4.142ZM4.45757 17.1772C4.68945 17.641 5.03747 18.0233 5.45961 18.3337L6.64439 16.7223C6.43186 16.5661 6.31322 16.4164 6.24643 16.2828L4.45757 17.1772ZM5.4553 18.3305C5.9145 18.6719 6.41477 18.9183 6.95438 19.0468L7.41762 17.1012C7.17324 17.043 6.9175 16.9254 6.6487 16.7255L5.4553 18.3305ZM6.95438 19.0468C7.40539 19.1542 7.84371 19.214 8.264 19.214V17.214C8.03095 17.214 7.75061 17.1805 7.41762 17.1012L6.95438 19.0468ZM8.264 19.214C8.99869 19.214 9.69016 19.0553 10.3083 18.7076L9.32774 16.9644C9.04984 17.1207 8.70531 17.214 8.264 17.214V19.214ZM10.3219 18.6998C10.9152 18.3537 11.4178 17.8632 11.8398 17.2635L10.2042 16.1125C9.91687 16.5208 9.61682 16.7957 9.31413 16.9722L10.3219 18.6998ZM11.8029 17.3127C11.9765 17.0956 12.1158 16.8562 12.2236 16.6001L10.3804 15.8239C10.3389 15.9225 10.2915 16.0004 10.2411 16.0633L11.8029 17.3127ZM12.2139 16.6224C12.3237 16.3785 12.4087 16.128 12.4626 15.872L10.5055 15.46C10.4847 15.5586 10.4483 15.6722 10.3901 15.8016L12.2139 16.6224ZM11.484 16.666H14.956V14.666H11.484V16.666ZM13.9593 15.5846C13.9305 15.9371 13.8425 16.328 13.6823 16.7607L15.5577 17.4553C15.7708 16.88 15.9068 16.3096 15.9527 15.7474L13.9593 15.5846ZM13.6844 16.7549C13.5232 17.182 13.324 17.5713 13.088 17.9253L14.7521 19.0347C15.076 18.5487 15.3434 18.0233 15.5556 17.4611L13.6844 16.7549ZM13.0793 17.9384C12.5496 18.7607 11.8694 19.3681 11.0294 19.7803L11.9106 21.5757C13.0866 20.9986 14.0398 20.1406 14.7607 19.0216L13.0793 17.9384ZM11.0294 19.7803C10.1606 20.2067 9.23817 20.42 8.25 20.42V22.42C9.53917 22.42 10.7634 22.1387 11.9106 21.5757L11.0294 19.7803ZM1.578 14.266V11.62H-0.422V14.266H1.578ZM0.578 12.62H15.964V10.62H0.578V12.62ZM14.964 11.62V14.266H16.964V11.62H14.964ZM15.964 13.266H0.578V15.266H15.964V13.266ZM1.59199 10.2007L1.57799 7.55471L-0.421986 7.56529L-0.407986 10.2113L1.59199 10.2007ZM0.578 8.56H15.964V6.56H0.578V8.56ZM14.964 7.56V10.206H16.964V7.56H14.964ZM15.964 9.206H0.592V11.206H15.964V9.206ZM6.34975 11.0909C6.67325 10.9207 7.06665 10.7365 7.53364 10.539L6.75436 8.69703C6.25069 8.91013 5.80408 9.11801 5.41825 9.32108L6.34975 11.0909ZM7.54209 10.5353C8.04162 10.3186 8.54109 10.0971 9.04051 9.87095L8.21549 8.04905C7.72558 8.27089 7.23572 8.48809 6.74591 8.70065L7.54209 10.5353ZM9.04051 9.87095C9.5677 9.63222 10.05 9.37915 10.4844 9.11027L9.43165 7.40973C9.082 7.62618 8.67763 7.83978 8.21549 8.04905L9.04051 9.87095ZM10.4988 9.10118C10.9639 8.80214 11.3794 8.43771 11.6467 7.98172L9.9213 6.97028C9.87127 7.05563 9.73608 7.21386 9.41724 7.41882L10.4988 9.10118ZM11.5927 8.06417C11.8212 7.75005 11.9817 7.39836 12.0586 7.01412L10.0974 6.62188C10.0809 6.70431 10.0455 6.79128 9.97526 6.88783L11.5927 8.06417ZM12.0586 7.01412C12.1148 6.73287 12.148 6.45557 12.148 6.188H10.148C10.148 6.29376 10.1345 6.43646 10.0974 6.62188L12.0586 7.01412ZM12.148 6.188C12.148 5.72501 12.0772 5.2715 11.8991 4.85608L10.0609 5.64392C10.1068 5.75116 10.148 5.92299 10.148 6.188H12.148ZM11.904 4.86765C11.7417 4.47546 11.5075 4.12446 11.212 3.81609L9.76801 5.1999C9.90183 5.33954 9.99427 5.4832 10.056 5.63235L11.904 4.86765ZM11.2219 3.82658C10.8697 3.44829 10.4459 3.15668 9.96559 2.9473L9.16641 4.78069C9.41407 4.88865 9.60631 5.02637 9.75811 5.18942L11.2219 3.82658ZM9.96558 2.9473C9.47119 2.7318 8.94736 2.626 8.404 2.626V4.626C8.68198 4.626 8.93281 4.67887 9.16642 4.7807L9.96558 2.9473ZM8.404 2.626C7.69697 2.626 7.02993 2.78952 6.44924 3.16282L7.53076 4.84518C7.73407 4.71448 8.0097 4.626 8.404 4.626V2.626ZM6.44001 3.16883C5.97679 3.47388 5.57871 3.83309 5.27126 4.25583L6.88874 5.43217C7.02929 5.2389 7.23788 5.03812 7.53999 4.83917L6.44001 3.16883ZM5.27582 4.24961C5.06833 4.53034 4.89975 4.83067 4.77967 5.15088L6.65233 5.85312C6.70025 5.72533 6.77434 5.587 6.88418 5.43839L5.27582 4.24961ZM4.77967 5.15088C4.6742 5.43214 4.59611 5.71859 4.54761 6.0096L6.52039 6.3384C6.54656 6.18141 6.5898 6.01986 6.65233 5.85312L4.77967 5.15088ZM5.534 5.174H1.978V7.174H5.534V5.174ZM2.97389 6.26454C3.02092 5.74721 3.14195 5.25189 3.33731 4.77522L1.48669 4.01678C1.21538 4.67878 1.04708 5.36879 0.982107 6.08346L2.97389 6.26454ZM3.33731 4.77522C3.54209 4.27556 3.78081 3.85446 4.04783 3.50352L2.45617 2.29248C2.06986 2.8002 1.74858 3.37778 1.48669 4.01677L3.33731 4.77522ZM4.05539 3.49345C4.5458 2.83178 5.16003 2.32523 5.91012 1.96582L5.04588 0.162184C4.00397 0.661433 3.1342 1.37755 2.44861 2.30254L4.05539 3.49345ZM5.90649 1.96755C6.67208 1.60448 7.50029 1.42 8.404 1.42V-0.58C7.21704 -0.58 6.09459 -0.335151 5.04951 0.160452L5.90649 1.96755ZM8.404 1.42C9.14782 1.42 9.85168 1.54486 10.5218 1.79215L11.2142 -0.0841524C10.3163 -0.415522 9.37752 -0.58 8.404 -0.58V1.42ZM10.5352 1.79699C11.2141 2.03662 11.7632 2.36633 12.2021 2.77547L13.5659 1.31253C12.9034 0.694998 12.1085 0.231381 11.2008 -0.0889906L10.5352 1.79699ZM12.2088 2.78167C12.6451 3.18097 13.0055 3.69071 13.282 4.33065L15.118 3.53735C14.7412 2.66529 14.2242 1.91503 13.5592 1.30633L12.2088 2.78167ZM13.2862 4.34014C13.5686 4.97548 13.704 5.60759 13.704 6.244H15.704C15.704 5.31241 15.5034 4.40452 15.1138 3.52786L13.2862 4.34014ZM13.704 6.244C13.704 6.66302 13.6344 7.09473 13.4877 7.54269L15.3883 8.16531C15.5962 7.5306 15.704 6.88898 15.704 6.244H13.704ZM13.4829 7.5576C13.3452 8.00129 13.1424 8.41936 12.8715 8.81416L14.5205 9.94584C14.9029 9.38864 15.1948 8.78937 15.3931 8.1504L13.4829 7.5576ZM12.8756 8.80821C12.6996 9.06077 12.508 9.28154 12.3015 9.47321L13.6625 10.9388C13.9787 10.6451 14.2631 10.3152 14.5164 9.95179L12.8756 8.80821ZM12.982 9.206H5.884V11.206H12.982V9.206Z" fill="#306049" fill-opacity="0.5"/>
</svg>
