<svg width="54" height="24" viewBox="0 0 54 24" fill="none" xmlns="http://www.w3.org/2000/svg">
<path d="M26.7375 3.31828L23.1291 20.7291H18.7664L22.3748 3.31828H26.7375ZM45.0959 14.5593L47.3919 8.02067L48.7138 14.5593H45.0959ZM49.963 20.7291H54L50.477 3.31828H46.7515C45.9134 3.31828 45.2082 3.821 44.8935 4.5963L38.3487 20.7291H42.9296L43.8388 18.1289H49.4365L49.963 20.7291ZM38.5764 15.0441C38.5954 10.4478 32.419 10.1964 32.4632 8.14309C32.4759 7.51795 33.0531 6.85528 34.3133 6.6839C34.9395 6.59902 36.6615 6.53536 38.6159 7.46409L39.3813 3.77203C38.3313 3.37867 36.9809 3 35.3 3C30.9879 3 27.9519 5.3667 27.9266 8.75517C27.8997 11.2622 30.0929 12.6594 31.7469 13.4935C33.4468 14.3471 34.0176 14.8939 34.0097 15.6561C33.9987 16.8248 32.653 17.3406 31.3991 17.3602C29.2043 17.3961 27.9329 16.7481 26.9178 16.2601L26.1271 20.0745C27.1455 20.5577 29.0272 20.9771 30.98 21C35.5625 21.0016 38.5622 18.6627 38.5764 15.0441ZM20.5026 3.31828L13.4328 20.7291H8.82026L5.34149 6.83406C5.13119 5.97715 4.94776 5.66377 4.30419 5.30305C3.25739 4.71708 1.52433 4.1654 0 3.82263L0.104363 3.31665H7.52837C8.47397 3.31665 9.32627 3.96627 9.54132 5.09086L11.3787 15.1665L15.9185 3.31502H20.5026V3.31828Z" fill="white"/>
</svg>
