<svg width="128" height="128" viewBox="0 0 128 128" fill="none" xmlns="http://www.w3.org/2000/svg">
<circle cx="64" cy="64" r="63.5" stroke="black"/>
<path d="M65.2402 78.0798C62.6202 79.5698 58.5602 80.7398 53.7102 78.2898C51.7602 77.3098 50.4102 75.9098 49.4802 74.3698L49.4502 74.3898C48.7702 74.4998 48.0802 74.4998 47.3902 74.3698C42.8602 73.5598 40.1202 67.7498 41.2602 61.3998C42.4002 55.0598 47.0102 50.5798 51.5402 51.3998C52.2902 51.5298 53.0002 51.8098 53.6502 52.1998C55.7202 50.4098 59.2602 48.1798 64.1302 48.0898C71.3602 47.9498 74.0502 51.6298 81.0002 50.8498C86.3702 50.2398 93.5602 46.8198 96.1902 51.0698C98.5502 54.8598 95.4702 58.9798 90.4402 59.4498C84.0102 60.0498 77.7402 57.6398 76.7302 57.2298C78.3202 58.1098 80.6202 59.9698 80.6202 63.4398C80.6202 68.6598 76.5302 69.7198 76.5302 69.7198L76.4802 69.7398C77.0902 71.0998 77.3702 72.8898 76.6802 75.0998C74.7302 81.4498 67.4602 80.4698 65.2602 78.1098L65.2402 78.0798Z" fill="white"/>
<path d="M51.532 54.4049C51.532 54.4049 55.966 48.2439 64.1329 48.0859C71.3579 47.9469 74.053 51.6349 81.002 50.8489C86.366 50.2429 93.555 46.8199 96.195 51.0669C98.5509 54.8569 95.4669 58.9759 90.4359 59.4499C83.4209 60.1109 76.5949 57.1729 76.5949 57.1729" stroke="black" stroke-width="2" stroke-miterlimit="10" stroke-linecap="round"/>
<path d="M75.249 56.6025C75.249 56.6025 80.625 58.1375 80.625 63.4395C80.625 68.6605 76.529 69.7215 76.529 69.7215" stroke="black" stroke-width="2" stroke-miterlimit="10" stroke-linecap="round"/>
<path d="M73.6307 66.4199C73.6307 66.4199 78.4757 69.2869 76.6847 75.1009C74.7287 81.4509 67.4617 80.4709 65.2627 78.1149" stroke="black" stroke-width="2" stroke-miterlimit="10" stroke-linecap="round"/>
<path d="M68.4434 75.5652C68.4434 75.5652 62.3294 82.6372 53.7074 78.2912C45.9974 74.4052 47.6424 63.9492 47.6424 63.9492" stroke="black" stroke-width="2" stroke-miterlimit="10" stroke-linecap="round"/>
<path d="M57.8122 54.8117C57.8122 54.8117 60.2812 54.0307 63.5762 54.5507" stroke="black" stroke-width="2" stroke-miterlimit="10" stroke-linecap="round"/>
<path d="M56.9194 58.5869C58.4354 58.5539 60.8554 58.7139 63.4424 59.7319" stroke="black" stroke-width="2" stroke-miterlimit="10" stroke-linecap="round"/>
<path d="M55.4771 62.1836C56.7831 62.4916 58.7261 63.1026 60.6211 64.2726" stroke="black" stroke-width="2" stroke-miterlimit="10" stroke-linecap="round"/>
<path d="M49.4475 74.391C48.7695 74.499 48.0805 74.497 47.3935 74.373C42.8615 73.556 40.1145 67.749 41.2585 61.405C42.4035 55.059 47.0045 50.578 51.5375 51.395C52.2925 51.531 52.9985 51.806 53.6445 52.199" stroke="black" stroke-width="2" stroke-miterlimit="10" stroke-linecap="round"/>
</svg>
